<svg width="96" height="96" viewBox="0 0 96 96" fill="none" xmlns="http://www.w3.org/2000/svg">
  <defs>
    <linearGradient id="bg" x1="10" y1="10" x2="86" y2="86" gradientUnits="userSpaceOnUse">
      <stop stop-color="#16324F"/>
      <stop offset="1" stop-color="#1F56D2"/>
    </linearGradient>
  </defs>
  <rect x="6" y="6" width="84" height="84" rx="20" fill="url(#bg)"/>
  <path d="M26 34C26 28.4772 30.4772 24 36 24H60C65.5228 24 70 28.4772 70 34V39C70 44.5228 65.5228 49 60 49H36C30.4772 49 26 44.5228 26 39V34Z" fill="white" fill-opacity="0.95"/>
  <path d="M26 57C26 51.4772 30.4772 47 36 47H60C65.5228 47 70 51.4772 70 57V62C70 67.5228 65.5228 72 60 72H36C30.4772 72 26 67.5228 26 62V57Z" fill="white" fill-opacity="0.18" stroke="white" stroke-width="3"/>
  <path d="M34 30H62" stroke="#16324F" stroke-width="4" stroke-linecap="round"/>
  <path d="M34 38H56" stroke="#16324F" stroke-width="4" stroke-linecap="round"/>
  <path d="M34 55H62" stroke="white" stroke-width="4" stroke-linecap="round"/>
  <path d="M34 63H50" stroke="white" stroke-width="4" stroke-linecap="round"/>
</svg>
